<?xml version="1.0" encoding="UTF-8"?>
<svg version="1.1" viewBox="0 0 2048 1273" width="812" height="505" xmlns="http://www.w3.org/2000/svg">
<path transform="translate(0)" d="m0 0h2048v1273h-2048z" fill="#FEFEFE"/>
<path transform="translate(110,122)" d="m0 0h245l31 3 17 3 19 5 14 5 16 7 17 10 12 9 13 11 11 11 11 14 11 17 8 14 9 22 6 23 4 23 2 27v35l-2 24-5 24-6 20-7 17-10 19-8 12-9 11-9 10-13 13-16 11-13 8-23 10-21 7-21 5-30 4-36 2h-217z" fill="#1D215B"/>
<path transform="translate(1472,121)" d="m0 0h100l8 11 16 21 14 19 12 16 14 19 10 13 14 19 16 21 14 19 18 24 14 19 16 21 10 14 14 18 10 14 12 16 1 2 1-285 14-1h87l1 1v436h-108l-10-11-8-11-9-12-16-21-14-19-14-18-8-11-12-16-10-13-14-19-10-13-9-12-16-21-14-19-16-21-14-19-14-18-4-5v79l-1 200h-101v-436z" fill="#1D215B"/>
<path transform="translate(897,118)" d="m0 0h121l16 33 13 28 22 45 11 23 15 31 11 23 16 34 23 47 13 28 11 22 13 28 22 45 11 23 14 30-1 3h-133l-5-2-13-29-36-82-28-64-18-41-13-30-15-34-7-16-2 2-15 37-15 36-48 117-19 46-18 44-6 14-2 2h-119l1-5 15-36 15-37 15-36 16-39 19-46 16-39 17-41 15-37 19-46 15-36 15-37z" fill="#D52921"/>
<path transform="translate(219,198)" d="m0 0h105l29 3 17 4 16 6 15 9 8 7 5 5 8 10 6 11 6 14 3 9 3 14 3 28v43l-3 27-4 20-5 15-8 16-9 13-8 8-18 10-10 4-16 4-12 2-43 2h-88z" fill="#FEFEFE"/>
<path transform="translate(1017,118)" d="m0 0 3 4 14 29 13 28 22 45 11 23 15 31 11 23 16 34 23 47 13 28 11 22 13 28 22 45 11 23 14 30-1 3h-133l-5-2-13-29-36-82-28-64-18-41-13-30-15-34-7-16 1-9 11-26 12-29 12-30 15-36 5-14z" fill="#1D215B"/>
<path transform="translate(1187,683)" d="m0 0h126l26 3 14 4 11 6 12 11 9 14 4 8 3 14v26l-4 14-7 13-9 11-13 9-10 5-12 4-8 1 14 9 13 13 13 18 13 20 14 23 14 22 3 4v3h-61l-5-5-29-44-16-23-10-15-7-8-11-7-13-2-22-2v105l-1 1h-51l-1-254z" fill="#1E215B"/>
<path transform="translate(1687,680)" d="m0 0h77l19 38 11 23 22 44 11 23 17 34 11 23 20 40 11 23 5 10v2h-87l-8-16-16-35-8-18-9-20-13-29-12-27-11-24v-2h-2l-1 7-14 33-19 45-13 31-19 45-5 10h-74l-2-1 2-6 15-35 19-45 18-43 20-47 13-31 11-26z" fill="#D52921"/>
<path transform="translate(380,683)" d="m0 0h51l5 8 18 30 14 23 17 28 12 20 14 23 9 15 10 16 1-163h48l1 2v252l-1 1h-50l-6-7-12-20-32-52-15-25-16-26-17-28-2 158h-48l-1-1z" fill="#1F215B"/>
<path transform="translate(803,683)" d="m0 0h172v46h-120v56h103l1 4v41l-1 1-103 1v105l-1 1h-51l-1-1v-253z" fill="#21215A"/>
<path transform="translate(1763,680)" d="m0 0 3 3 14 29 16 33 20 40 11 23 17 34 11 23 20 40 11 23 5 10v2h-87l-8-16-16-35-8-18-9-20-13-29-12-27-11-24 1-9 14-32 11-26z" fill="#1E215B"/>
<path transform="translate(110,683)" d="m0 0h52v254l-1 1h-51z" fill="#1E215B"/>
<path transform="translate(1563,1077)" d="m0 0h301l17 1v25l-1 1h-363v-26z" fill="#232159"/>
<path transform="translate(114,1077)" d="m0 0h321l16 1-1 26h-363v-26z" fill="#23215A"/>
<path transform="translate(1425,1027)" d="m0 0h17l12 4 8 6 5 6 6 12 2 6 2 14v27l-3 19-5 15-7 11-7 6-11 5-5 1h-17l-9-3-8-5-7-8-4-11 1-4h18l4 10 5 4 5 2h11l8-4 6-8 3-8 2-9 2-17-8 7-8 5-7 2h-16l-9-3-8-6-6-7-4-9-2-10v-13l3-12 6-11 9-8 11-5z" fill="#D52921"/>
<path transform="translate(1220,1027)" d="m0 0h18l12 4 8 6 5 6 6 12 3 13 1 14v15l-2 19-4 15-7 13-9 9-11 5-5 1h-18l-12-5-8-7-5-8-2-10 1-1h18l4 10 5 4 5 2h11l8-4 5-6 5-13 3-23-8 7-8 5-7 2h-16l-9-3-9-7-6-8-4-11-1-4v-17l4-13 6-9 8-7 8-4z" fill="#D52921"/>
<path transform="translate(673,1024)" d="m0 0h25l6 9 15 27 10 17 15 26 15 25v2h2v-106h15l1 1v132l-18 1-5-2-13-22-15-26-13-22-15-26-7-11v-2h-2v110l-12 1-4-1-1-86v-41z" fill="#D52921"/>
<path transform="translate(546,1022)" d="m0 0 17 1 13 4 9 6 6 8 3 9v7h-17l-5-10-5-5-7-3-7-1h-10l-10 2-7 4-5 6-2 9 3 7 6 5 11 5 31 9 12 5 8 6 5 6 3 8v17l-3 10-6 8-8 7-11 5-17 3-20-1-12-3-8-4-8-7-5-10-2-8v-8l18-1 3 9 4 8 5 4 8 3 5 1h14l13-4 6-4 4-6 1-11-4-8-10-6-13-5-29-8-9-4-8-7-5-9-1-4v-15l4-10 6-8 10-6 10-4z" fill="#D52921"/>
<path transform="translate(1239,729)" d="m0 0h62l18 1 10 6 6 7 3 10v11l-2 9-4 5-5 6h-4v2l-9 2-23 2h-52z" fill="#FEFEFE"/>
<path transform="translate(930,1024)" d="m0 0h83v15l-1 1-63 1-1 39h46l16 1v15l-2 1h-59l-1 44h65l1 1v15h-84z" fill="#D52921"/>
<path transform="translate(847,1023)" d="m0 0h26l13 4 9 6 7 8 3 7 1 11h-19l-3-9-7-8-10-4h-16l-9 3-8 7-6 10-4 14-1 9v19l2 13 4 12 6 9 6 5 11 4h14l11-4 7-8 3-9h20l-2 12-6 10-9 8-11 5-16 3-17-1-10-3-11-6-5-4-8-11-5-12-3-13-1-10v-19l3-17 4-12 7-11 9-9 14-7z" fill="#D52921"/>
<path transform="translate(1291,1028)" d="m0 0h40l42 1v9l-2 13-16 39-14 35-11 27-3 5h-21l3-9 8-17 13-30 15-34 9-21v-1l-64-1v-15z" fill="#D52921"/>
<path transform="translate(1144,1028)" d="m0 0h2v129h-17v-106l-7 4-11 7-8 4h-3l1-19 16-9 10-8 1-1z" fill="#D52921"/>
<path transform="translate(625,1024)" d="m0 0h15l2 1v127l-1 5h-17v-132z" fill="#D52921"/>
<path transform="translate(1223,1041)" d="m0 0h12l8 4 6 7 3 6 1 5v13l-4 11-5 6-7 4-13 1-9-3-8-9-3-10v-13l4-11 5-6z" fill="#FEFEFE"/>
<path transform="translate(1427,1041)" d="m0 0h12l8 4 6 7 4 10v14l-4 11-5 6-7 4-5 1h-8l-10-4-6-7-4-10v-13l3-10 6-8z" fill="#FEFEFE"/>
</svg>
